<?xml version="1.0" encoding="utf-8"?>
<!-- Generator: Adobe Illustrator 26.0.1, SVG Export Plug-In . SVG Version: 6.00 Build 0)  -->
<svg version="1.1" id="Layer_1" xmlns="http://www.w3.org/2000/svg" xmlns:xlink="http://www.w3.org/1999/xlink" x="0px" y="0px"
	 viewBox="0 0 1024 1024" style="enable-background:new 0 0 1024 1024;" xml:space="preserve">
<style type="text/css">
	.st0{filter:url(#Adobe_OpacityMaskFilter);}
	.st1{fill:#FFFFFF;}
	.st2{mask:url(#SVGID_1_);fill:#48BB78;}
	.st3{fill:none;stroke:#FF00FF;stroke-miterlimit:10;}
	.st4{opacity:0.5;fill:#48BB78;}
	.st5{filter:url(#Adobe_OpacityMaskFilter_00000134222110313507585420000005160971726740478338_);}
	.st6{mask:url(#SVGID_00000173153655013052218610000017676535360513735068_);fill:#48BB78;}
	.st7{filter:url(#Adobe_OpacityMaskFilter_00000115474651425387426340000010184936857723636924_);}
	.st8{mask:url(#SVGID_00000102508217252625199000000001047102049180372652_);fill:#48BB78;}
</style>
<defs>
	<filter id="Adobe_OpacityMaskFilter" filterUnits="userSpaceOnUse" x="149.99" y="582.58" width="351.77" height="408.51">
		
			<feColorMatrix  type="matrix" values="-1 0 0 0 1  0 -1 0 0 1  0 0 -1 0 1  0 0 0 1 0" color-interpolation-filters="sRGB" result="source"/>
		<feFlood  style="flood-color:white;flood-opacity:1" result="back"/>
		<feBlend  in="source" in2="back" mode="normal"/>
	</filter>
</defs>
<mask maskUnits="userSpaceOnUse" x="149.99" y="582.58" width="351.77" height="408.51" id="SVGID_1_">
	<g class="st0">
		<path class="st1" d="M173.91,614.37c44.68-6.48,96.87-11.13,155.13-10.94c56.72,0.18,107.63,4.9,151.39,11.37
			c-0.26,41.65-0.25,72.82-0.19,93.97c0.02,8.39-0.09,23.05,0.08,44.18c0.24,30.4,0.75,39.95-0.08,49.54
			c-3.6,41.66-33.65,98.78-152.75,164.35c-30.23-13.34-68.66-34.84-102.61-68.59c-22.86-22.73-32.1-39.5-37.02-50.26
			c-10.33-22.56-12.94-43.35-13.61-49.58c-0.66-6.13-0.78-12.43-1-24.79c-0.45-25.71,0.26-45.1,0.33-47.03
			C174.22,708.96,174.7,677.05,173.91,614.37z"/>
	</g>
</mask>
<path class="st2" d="M151.12,596.22c50.32-7.96,110.09-13.86,177.35-13.64c65.57,0.21,123.93,6.2,173.28,14.15
	c-0.24,24.68-0.51,61.53-0.48,106.36c0.06,82.34,1.06,92.56,0,104.59c-4.11,46.49-38.4,110.23-174.32,183.41
	c-34.5-14.89-78.36-38.88-117.09-76.55c-26.09-25.36-36.63-44.08-42.25-56.08c-11.79-25.18-14.77-48.38-15.54-55.33
	c-0.83-7.59-0.93-12.34-1.14-27.66c-0.92-67.96-0.95-56.21-0.95-65.94C150.01,663.43,150.69,620.24,151.12,596.22z"/>
<path class="st3" d="M173.1,614.92"/>
<path class="st4" d="M196.09,863.22l129.78-126.41l130.79,126.41c-3.45,4.88-7.4,10.04-11.91,15.35c-4.33,5.1-8.62,9.66-12.72,13.71
	c-35.04-33.89-70.09-67.78-105.13-101.66c-35.44,34.41-70.88,68.83-106.32,103.24c-3.93-4.01-8.04-8.55-12.17-13.65
	C203.61,874.3,199.54,868.56,196.09,863.22z"/>
<path class="st4" d="M174.44,800.12l151.93-147.05l153.86,149.42c-0.51,5.52-1.52,12-3.43,19.1c-2.37,8.81-5.49,16.17-8.42,21.94
	c-47.01-45.8-94.03-91.61-141.04-137.41L185.91,843.53c-2.69-6.47-5.36-14.07-7.57-22.71C176.43,813.3,175.21,806.34,174.44,800.12z
	"/>
<defs>
	
		<filter id="Adobe_OpacityMaskFilter_00000148623647738805334890000014666829516681436801_" filterUnits="userSpaceOnUse" x="337.31" y="32.26" width="533.73" height="640.04">
		
			<feColorMatrix  type="matrix" values="-1 0 0 0 1  0 -1 0 0 1  0 0 -1 0 1  0 0 0 1 0" color-interpolation-filters="sRGB" result="source"/>
		<feFlood  style="flood-color:white;flood-opacity:1" result="back"/>
		<feBlend  in="source" in2="back" mode="normal"/>
	</filter>
</defs>
<mask maskUnits="userSpaceOnUse" x="337.31" y="32.26" width="533.73" height="640.04" id="SVGID_00000067916409921390322690000017784404378417220754_">
	<g style="filter:url(#Adobe_OpacityMaskFilter_00000148623647738805334890000014666829516681436801_);">
		<path class="st1" d="M479.1,424.18c-4.97,3.89-10.2,8.29-15.54,13.26c-6,5.58-11.28,11.08-15.92,16.29
			c-4.59-2.4-15.61-8.22-28.04-15.35c-2.52-1.45-6.54-3.79-10.61-8.15c-2.11-2.26-3.59-4.37-4.55-5.87c0-4.11,0-8.21,0-12.32
			c3.46-5.53,7.32-12.95,10.23-22.17c1.87-5.92,2.96-11.38,3.6-16.11c4.99-1.82,12.44-4.31,21.69-6.54
			c17.26-4.15,25.9-6.22,34.86-3.88c12.69,3.3,24.14,13.19,27.28,15.92c1.66,1.43,3.29,2.97,6.31,5.35
			c6.95,5.46,13.24,9.05,17.47,11.23c1.04-2.58,2.72-6.81,4.74-12.03c8.14-21.13,13.39-37.18,15.35-43.11
			c11.81-35.76,19.33-58.55,31.55-85.83c10.04-22.42,17.99-36.13,22.64-43.77c9.68-15.9,18.4-27.34,22.36-32.4
			c7.84-10.03,15.29-18.33,21.6-24.92c0.72,0.87,1.69,2.23,2.37,4.07c1.59,4.33,0.51,8.35,0.09,10c-1.47,5.83-3.21,16.24-5.4,30.26
			c2.03-4.13,4.84-9.45,8.53-15.44c0,0,7.65-12.43,16.73-23.06c10.78-12.61,14.69-11.19,48.16-36.72
			c10.8-8.24,26.78-20.89,36.81-28.95c3.12-2.51,3.67-2.97,5.84-4.69c15.12-11.97,19.19-13.92,25.28-19.98
			c2.78-2.76,6.63-7.02,10.52-13.07c0.54,0.68,1.25,1.73,1.8,3.13c0.71,1.79,0.88,3.46,0.85,5.78c-0.03,2.31-0.27,5.69-1.23,9.85
			c-3.56,3.64-6.2,6.77-7.86,8.81c-9.3,11.45-14.96,22.48-20.56,33.54c-1.36,2.69-2.42,4.87-3.03,6.16
			c4.61-3.92,8.25-7.26,10.71-9.57c7.01-6.59,11.25-11.25,18.57-16.77c1.95-1.47,4.99-3.66,9.38-5.54c2.84-1.22,5.34-1.91,7.11-2.32
			c10.71-0.09,21.41-0.19,32.12-0.28c0.06,1.77,0.02,4.4-0.57,7.48c-0.79,4.19-2.11,6.72-3.69,10.71
			c-1.11,2.78-2.56,6.78-3.88,11.84c2.95-0.16,6.68-0.09,10.89,0.66c2.99,0.53,5.59,1.3,7.77,2.08c-2.85,2.56-5.45,3.67-7.3,4.2
			c-4.27,1.24-10.81,2.92-10.81,2.92c-0.45,0.11-1.41,0.38-1.97,1.22c-0.58,0.87-0.44,1.93-0.31,2.5c0.5,1.8,1.27,3.94,2.49,6.22
			c2.27,4.22,5.13,7.08,7.2,8.81c-1.74,0.99-3.64,1.98-5.68,2.94c-3.57,1.67-6.96,2.93-10.04,3.88c0.09,4.48,0.19,8.97,0.28,13.45
			c4.21,0.67,9.28,2.06,14.49,4.93c1.11,0.61,2.15,1.25,3.13,1.89c-5.53,7.4-10.95,10.25-14.97,11.46
			c-4.04,1.22-8.28,1.27-15.35,4.07c-2.8,1.11-5.01,2.24-6.44,3.03c1.43,2.69,2.93,4.6,4.07,5.87c2,2.22,3.7,3.4,6.54,6.73
			c0.8,0.94,1.42,1.73,1.83,2.27c-6.3,4.32-11.01,8.41-14.24,11.46c-3.69,3.48-4.81,5.01-5.68,6.63
			c-2.77,5.11-4.13,12.96-0.47,16.39c0.74,0.69,1.52,1.05,1.99,1.23c-0.7,0.69-1.73,1.66-3.03,2.75c-2.28,1.89-4.1,3.03-6.35,4.45
			c-7.8,4.93-6.63,4.28-8.05,5.12c-4.15,2.45-9.28,5.47-16.2,8.05c-4.14,1.54-6.01,1.84-12.4,4.34c-2.3,0.9-4.18,1.69-5.45,2.24
			c5.73,3.55,11.46,7.1,17.19,10.66c-2.48,1.59-4.66,2.62-6.23,3.28c-4.2,1.77-7.78,2.44-10.73,2.97c-2.95,0.54-4.43,0.8-6.16,0.85
			c-2.82,0.08-4.29-0.31-6.44,0.57c-1.38,0.56-2.25,1.31-3.08,2.03c-1.36,1.18-2.61,2.68-4.4,6.03c-1.95,3.65-2.94,6.44-2.94,6.44
			c-2.74,7.78-4.11,11.67-6.16,18.19c-2.82,8.99-3.48,8.85-6.16,16.96c-2.93,8.89-3.26,12.48-5.78,22.93
			c-4.8,19.92-7.23,29.98-14.02,41.46c-3.68,6.22-7.98,11.74-11.18,15.85c-5.61,7.21-10.35,12.3-13.74,15.92
			c-6.09,6.5-9.13,9.75-11.97,11.68c-3.45,2.34-12.48,8.48-22.91,6.82c-2.49-0.4-5.85-1.96-12.58-5.06c-3.88-1.79-5.16-2.58-11.87-6
			c-10.82-5.52-9.85-4.67-13.61-6.79c-5.54-3.12-6.91-4.5-16.2-10.89c-3.13-2.15-7.75-5.27-13.55-8.91
			c1.78,3.57,4.42,8.6,7.96,14.49c2.39,3.98,3.8,6.31,5.87,9c4.48,5.8,8.97,9.27,12.98,12.32c9.61,7.31,13.37,7.39,21.01,14.42
			c3.02,2.78,5.22,5.33,6.56,6.99c-1.58-0.36-3.19-0.77-4.83-1.23c-6.52-1.82-12.33-4.11-17.43-6.54
			c-1.96,3.69-3.92,7.39-5.87,11.08c4.48,2.47,10.01,6.24,15.25,11.94c1.96,2.13,3.62,4.25,5.02,6.25
			c-2.39,0.54-6.17,1.15-10.71,0.66c-7.91-0.85-11.66-4.33-20.65-7.48c-3.34-1.17-8.4-2.65-14.97-3.41
			c2.03,8.43,4.8,17.79,8.62,27.76c2.78,7.24,5.74,13.85,8.72,19.8c-6.42,0.01-11.56-0.14-15.06-0.28
			c-6.16-0.25-10.02-0.57-15.35,0.85c-2.07,0.55-3.53,0.94-5.31,1.89c-7.65,4.11-10.17,12.74-11.37,16.86
			c-0.76,2.59-1.26,5.27-1.71,11.84c-0.39,5.84-0.68,13.98-0.19,23.87c-8.84-6.09-16.32-6.95-20.27-7.01
			c-4.42-0.07-7.81,0.75-18.19,4.07c-6.48,2.07-14.83,4.84-24.57,8.3c-5.85-0.73-11.7-1.46-17.55-2.19
			c7.42-5.89,14.27-8.93,18.91-10.56c6.02-2.12,11.4-2.97,12.41-3.13c10.12-1.59,12.46,0.32,18.95-2.08
			c2.34-0.87,6.86-2.61,10.33-6.92c3.38-4.2,3.85-8.48,4.74-16.67c1.22-11.27-0.69-19.19-1.15-20.98c-1.02-4-2.32-7.07-2.89-8.36
			c-1.64-3.71-3.48-6.69-5.06-8.94c-2.12,5.29-3.3,9.72-3.98,12.69c-0.79,3.45-1.28,6.63-2.65,20.27
			c-0.49,4.88-0.87,8.93-1.14,11.75c-6.13,1.14-12.25,2.27-18.38,3.41c0.96-3.61,2.24-8.96,3.22-15.54
			c2.08-13.92,3.12-20.88,0.19-28.42c-3.62-9.29-11.78-15.71-14.21-17.62c-5.85-4.6-10.19-5.81-12.51-11.18
			c-1-2.32-1.62-5.4-0.57-11.75c1.89-11.47,6.66-18.06,10.61-26.15C473.73,444.27,477.14,435.75,479.1,424.18z"/>
		<path class="st1" d="M554.89,547.34c6.2-5.51,15.1-1.46,28.42-2.08c4.31-0.2,10.74-0.97,18.57-3.79
			c-2.1-6.06-4.49-12.39-7.2-18.95c-2.67-6.44-5.4-12.51-8.15-18.19c4.19,2.32,12.12,5.83,21.98,4.93
			c4.99-0.46,13.69-1.25,17.24-7.77c2.13-3.91,1.49-8.19,0.95-10.42c7.36,6.16,13.98,9.47,18.76,11.37
			c5.44,2.16,10.37,3.64,16.29,8.15c3.53,2.68,6.01,5.44,7.58,7.39c-7.27-0.65-14.55-1.3-21.82-1.95
			c0.38,5.77,1.66,13.61,5.71,21.85c3.37,6.86,6.9,10.4,5.68,12.32c-1.13,1.78-6.25,1.94-23.49-4.93
			c6.69,14.59,13.39,29.18,20.08,43.77c-3.92,0-7.83,0-11.75,0c-1.51,7.02-1.1,12.1-0.38,15.54c0.22,1.07,0.55,2.34,2.91,12.38
			c0.17,0.72,0.53,2.26,0.69,2.97c-1.97-0.83-4.66-2.14-7.58-4.17c-3.7-2.58-5.51-4.74-7.2-4.17c-1.61,0.55-2.05,3.22-2.27,4.55
			c-3.52,21.2-4.87,22.75-5.87,23.05c-1.82,0.54-3.05-2.9-10.42-7.89c-4.03-2.73-6.09-4.09-8.34-3.6c-2.83,0.62-3.65,3.55-7.58,9.28
			c-2.51,3.67-4.91,6.47-6.63,8.34c-0.88-1.82-4.7-9.19-13.07-11.94c-3.19-1.05-6.08-1.11-8.15-0.95
			c-2.72-3.72-6.54-9.14-10.8-15.92c-6.05-9.63-9.11-14.56-10.61-19.89c-1.13-4.01-1-10.69-0.76-24.06
			c0.16-8.53,0.64-14.07,3.75-20.01C552.81,549.92,553.48,548.6,554.89,547.34z"/>
		<path class="st1" d="M519.65,376.24c2.34-7.26,4.67-14.53,7.01-21.79c-2.38-0.74-5.99-1.82-10.42-3.03
			c-8.28-2.26-11.82-2.88-15.92-3.98c-8.03-2.15-13.51-4.88-21.6-8.91c-7.27-3.62-7.96-4.55-22.55-13.07
			c-19.77-11.56-22.71-12.31-25.14-12.69c-5.06-0.8-14.37-0.98-26.97,6.44c0-4.11,0-8.21,0-12.32c-5.31,3.66-11.56,7.51-18.76,11.18
			c-7.5,3.83-14.56,6.71-20.84,8.91c9.84,5.21,18.95,10.23,27.28,14.97c3.85,2.19,8.39,4.81,13.45,9.47
			c3.95,3.64,6.73,7.15,8.53,9.66c8.68-3.03,18.5-5.93,29.37-8.34c8.45-1.87,16.43-3.19,23.81-4.11c4.01-0.24,10.03-0.09,16.74,2.21
			c4.75,1.63,8.21,3.78,14.02,7.96C503.44,362.96,511.02,368.72,519.65,376.24z"/>
	</g>
</mask>
<path style="mask:url(#SVGID_00000067916409921390322690000017784404378417220754_);fill:#48BB78;" d="M501.75,596.73
	c1.78-0.89,4.57-2,8.15-2.33c1.47-0.14,4.21-0.25,7.46,0.53c1.66,0.4,3,0.97,5.7,2.11c4.1,1.74,4.49,2.27,6.44,2.79
	c1.5,0.4,3.78,0.76,6.82,0.28c0.22,1.32,0.6,3.31,1.32,5.67c1.25,4.13,3.27,7.78,9.23,17.48c4.63,7.52,4.65,6.09,6.69,10.23
	c2.11,4.27,4.1,9.88,5.43,13.64c0.51,1.45,0.92,2.65,1.2,3.47c1.57-0.46,3.19-0.99,4.86-1.58c2.82-1,5.43-2.07,7.83-3.16
	c2.23,1.53,3.65,3.07,4.51,4.15c1.75,2.19,1.67,3.05,4.02,6.4c1.19,1.69,2.24,2.94,3.54,4.48c1.17,1.39,2.16,2.49,3.73,4.17
	c1.7,1.83,4.03,4.29,6.9,7.23c0.35-1.04,0.85-2.51,1.47-4.26c1.14-3.21,2.1-5.66,2.27-6.11c2.26-5.71,8-14.43,9.14-16.15
	c2.42,1.65,4.34,3.08,5.64,4.07c2.34,1.79,2.99,2.42,5.92,4.64c0.68,0.52,2.14,1.53,5.05,3.57c2.86,2,3.56,2.46,4.56,2.4
	c1.81-0.11,3.04-1.81,4.1-3.29c0.99-1.37,1.79-2.96,4.19-11.72c0.39-1.42,0.58-2.13,0.76-2.84c0.96-3.9,1.47-7.18,1.75-9.52
	c1.7,0.79,4.12,1.82,7.13,2.74c0.86,0.26,2.2,0.67,3.7,0.99c2.19,0.46,5.56,0.88,9.92,0.35c0.71-6.68,0.26-11.9-0.28-15.44
	c-0.38-2.49-0.98-5.22-2.08-10.23c-0.76-3.46-1.43-6.31-1.89-8.24c0.71,0.07,1.8,0.17,3.13,0.28c13.99,1.22,16.01,0.74,16.58-0.38
	c0.24-0.48,0.17-0.98-0.66-3.03c-2.16-5.3-4.53-8.89-6.06-11.65c-1.21-2.17-1.13-2.44-3.41-7.67c-1.72-3.95-4.27-9.55-7.77-16.39
	c2.24,0.05,7.17-0.2,10.47-3.66c4.25-4.46,3.07-11.36,2.23-16.33c-0.9-5.29-2.91-9.31-4.36-11.75c0.82-0.26,2.1-0.63,3.69-0.95
	c8.22-1.62,11.64,0.91,13.83-0.76c3.53-2.68,1.56-14.42-4.93-22.83c-4.11-5.34-8.97-7.93-18.57-13.07
	c-5.93-3.17-10.93-5.11-19.14-10.52c-2.1-1.39-3.8-2.59-4.93-3.41c0.24-2.47,0.28-5.71-0.47-9.38c-0.33-1.62-0.77-3.08-1.23-4.36
	c1.06,0.28,2.68,0.63,4.66,0.69c3.11,0.09,5.58-0.56,8.22-1.44c5.3-1.77,11.05-3.69,17.43-8.48c3.35-2.52,5.76-4.99,6.96-6.24
	c2.54-2.63,2.78-3.33,6.53-7.5c3.38-3.76,3.95-4.05,6.35-6.81c1.69-1.95,3.88-4.65,6.21-8.1c4.15-4.55,10.28-11.98,15.92-22.17
	c12.75-23.05,11.34-39.28,21.41-71.24c2.54-8.07,6.67-19.83,13.17-33.76c2.86-0.09,5.88-0.36,9.03-0.88
	c18.19-3.04,31.29-13.01,38.81-20.12c-2.22-1.33-4.56-2.88-6.95-4.67c-1.18-0.89-2.3-1.77-3.35-2.65
	c7.59-4.46,15.32-9.17,23.18-14.15c10.17-6.45,19.85-12.91,29.05-19.33c-4.74-0.63-10.2-1.79-16.04-3.92
	c-1.97-0.72-3.83-1.48-5.56-2.27c0.59-0.87,1.57-2.28,2.91-3.92c5.12-6.3,9.35-8.61,15.03-13.77c2.08-1.88,5.12-4.85,8.46-8.97
	c-1.97-1.79-3.96-4.13-5.43-7.17c-0.17-0.35-0.33-0.7-0.47-1.04c4.41-0.98,7.53-2.52,9.47-3.65c5.49-3.19,8.89-7.41,17.05-14.73
	c0.81-0.73,2.63-2.33,5.39-3.77c1.61-0.84,3.01-1.34,3.9-1.63c-2.62-1.75-4.58-3.38-5.87-4.55c-3.77-3.38-5.17-5.64-8.91-7.86
	c-1.72-1.02-3.26-1.64-4.26-1.99c3.29-2.4,7-5.51,10.71-9.47c2.29-2.45,4.23-4.85,5.87-7.11c-2.38-0.42-6.24-1.48-9.85-4.45
	c-1.11-0.91-2.01-1.86-2.75-2.75c3.08-1.23,8-3.7,12.13-8.62c6.29-7.5,9.3-18.96,5.87-21.79c-1.05-0.87-2.74-0.95-4.64-1.04
	c-2.7-0.13-3.88,0.55-6.63,0.85c-1.5,0.16-3.73,0.24-6.54-0.28c1.35-5.71,1.87-10.51,2.08-14.02c0.16-2.67-0.02-4.88-0.38-9.28
	c-0.23-2.77-0.46-4.42-1.71-5.87c-1.24-1.45-2.9-2.02-3.98-2.27c-9.76-0.74-20.42-0.82-31.83,0.19c-2.42,0.21-4.79,0.47-7.11,0.76
	c1.12-3.71,2.12-9.05,1.23-15.25c-2.57-17.92-18.67-27.24-21.13-28.61c-0.47,1.48-1.27,3.84-2.46,6.63
	c-7.83,18.27-19.27,23.85-54.85,53.15c-7.89,6.5-14.64,12.25-26.4,21.41c-7.65,5.96-11.46,8.96-14.91,11.37
	c-9.69,6.77-15.34,9.57-25.01,17.18c-3.32,2.62-5.94,4.87-7.58,6.32c-0.64-1.15-1.44-2.89-1.8-5.12c-0.63-3.84,0.62-5.57-0.6-7.52
	c-1.57-2.51-5.49-2.59-5.94-2.59c-4.44-0.03-7.81,3.46-9.25,4.99c-17.28,18.39-25.92,27.59-28.39,31.07
	c-8.8,12.43-13.2,18.64-19.01,27.85c-4.67,7.39-11.88,18.89-19.98,34.63c-6.45,12.53-14.15,27.49-20.88,47.79
	c-2.85,8.59-8.87,28.23-12.76,39.54c-1.97,5.74-2.35,6.28-3.66,10.55c-0.69,2.25-1.57,5.27-3.28,9.28c-0.54,1.27-1.03,2.3-1.36,3
	c-2.24-0.98-5.77-2.39-10.26-3.56c-7.64-2.01-9.64-1.14-16.04-3.22c-1.67-0.54-5.14-2.18-12-5.43c-4.01-1.9-7.83-3.71-10.74-5.18
	c-9.16-4.63-11.39-6.95-19.83-11.87c-5.32-3.1-28.55-16.69-37.64-13.52c-0.75,0.26-3.84,1.52-5.81,0.13
	c-1.12-0.79-1.14-1.9-2.91-3.66c0,0-1.19-1.19-2.65-2.02c-3.03-1.72-6.53-1.14-7.96-0.88c-7.49,1.33-17.78,8.08-22.36,10.86
	c-7.52,4.57-13.58,6.91-21.22,9.85c-6.37,2.46-14.43,5.01-24.13,6.82c3.14,4.31,8.27,10.46,15.92,16.17
	c7.55,5.63,12.52,7.08,21.35,11.87c15.1,8.21,22.65,12.31,26.27,18.57c10.99,18.99-19.4,41.1-8.84,63.54
	c4.19,8.9,15.62,19.58,27.28,24.25c5.62,2.25,8.84,3.99,15.28,7.45c8.08,4.35,11.28,6.74,12.38,10.48c0.89,3.01-0.51,3.7-0.47,8.81
	c0.07,7.54,3.17,13.22,4.13,14.93c2.27,4.04,4.01,4.82,11.62,12c7.58,7.16,11.37,10.73,12.25,12.51c2.84,5.72,0.92,14.38-2.91,31.71
	c-2.33,10.54-3.44,12.44-4.91,14.06c-4.73,5.25-10,4.5-17.07,9.56c-5.07,3.63-8.29,8.3-10.4,12.45c11.89,1.23,24.07,2.68,36.55,4.39
	C484.59,594.07,493.26,595.36,501.75,596.73z"/>
<defs>
	
		<filter id="Adobe_OpacityMaskFilter_00000169517147588071007840000011448564586553083572_" filterUnits="userSpaceOnUse" x="424.57" y="393.36" width="35.37" height="36.74">
		
			<feColorMatrix  type="matrix" values="-1 0 0 0 1  0 -1 0 0 1  0 0 -1 0 1  0 0 0 1 0" color-interpolation-filters="sRGB" result="source"/>
		<feFlood  style="flood-color:white;flood-opacity:1" result="back"/>
		<feBlend  in="source" in2="back" mode="normal"/>
	</filter>
</defs>
<mask maskUnits="userSpaceOnUse" x="424.57" y="393.36" width="35.37" height="36.74" id="SVGID_00000082342641480252504940000018127669978332349608_">
	<g style="filter:url(#Adobe_OpacityMaskFilter_00000169517147588071007840000011448564586553083572_);">
		<path class="st1" d="M438.27,407.41c0.36-0.54,1.12-1.11,1.61-0.85c0.47,0.25,0.53,1.19,0.19,1.8c-0.43,0.78-1.57,1.13-1.99,0.76
			C437.72,408.79,437.93,407.93,438.27,407.41z"/>
	</g>
</mask>
<path style="mask:url(#SVGID_00000082342641480252504940000018127669978332349608_);fill:#48BB78;" d="M425.77,402.01
	c0.45-1.06,1.79-4.05,5.02-6.25c3.52-2.4,7.17-2.41,8.46-2.4c2.9,0.03,6.08,1.26,12.44,3.73c1.78,0.69,2.86,1.18,4.74,1.58
	c2.3,0.49,2.98,0.25,3.35,0.79c0.92,1.35-2.25,4.25-5.26,9.51c-1.69,2.95-1.01,2.6-3.96,9.02c-4.36,9.48-5.98,10.55-6.89,11.03
	c-2.83,1.5-6.48,1.39-9.18-0.01c-2.23-1.15-3.35-3.14-5.58-7.11c-1.75-3.12-3.12-5.56-3.8-9.21
	C424.65,410.23,423.92,406.31,425.77,402.01z"/>
</svg>
