<?xml version="1.0" encoding="utf-8"?>
<!-- Generator: Adobe Illustrator 26.0.1, SVG Export Plug-In . SVG Version: 6.00 Build 0)  -->
<svg version="1.1" xmlns="http://www.w3.org/2000/svg" xmlns:xlink="http://www.w3.org/1999/xlink" x="0px" y="0px"
	 viewBox="0 0 367.7 213.2" style="enable-background:new 0 0 367.7 213.2;" xml:space="preserve">
<style type="text/css">
	.st0{fill:none;stroke:#FFFFFF;stroke-width:0.8;stroke-miterlimit:28.3465;}
	.st1{fill:#48BB78;}
	.st2{font-family:'Heebo-Medium';}
	.st3{font-size:10px;}
</style>
<g id="Black_background">
	<rect width="367.7" height="213.2"/>
</g>
<g id="svg2" inkscape:output_extension="org.inkscape.output.svg.inkscape" inkscape:version="0.45" sodipodi:docbase="D:\LAURENT" sodipodi:docname="USApolitique.svg" sodipodi:modified="true" sodipodi:version="0.32" xmlns:cc="http://web.resource.org/cc/" xmlns:dc="http://purl.org/dc/elements/1.1/" xmlns:inkscape="http://www.inkscape.org/namespaces/inkscape" xmlns:rdf="http://www.w3.org/1999/02/22-rdf-syntax-ns#" xmlns:sodipodi="http://sodipodi.sourceforge.net/DTD/sodipodi-0.dtd" xmlns:svg="http://www.w3.org/2000/svg">
	
		<sodipodi:namedview  bordercolor="#666666" borderopacity="1.0" gridtolerance="10.0" guidetolerance="10.0" id="base" inkscape:pageopacity="0.0" inkscape:pageshadow="2" inkscape:window-height="480" inkscape:window-width="640" objecttolerance="10.0" pagecolor="#ffffff">
		</sodipodi:namedview>
	<desc  id="desc6">Imported from usa.wmf 25/05/2008 18:05:02</desc>
	<polyline id="polyline10" class="st0" points="262.3,164.8 250.8,164.4 245.7,164.4 246.1,168.2 243.8,168.3 243.8,166.5 
		242.6,165.8 242.1,168.5 240.2,168.4 239.5,163.2 239.7,134.9 255.1,133.5 260.7,152.8 259.8,156.6 261.2,159 260.7,162 
		262.1,164.2 262.3,164.8 	"/>
	<polyline id="polyline32" class="st0" points="76.2,124.6 75.8,125.9 77,127.4 77.5,129.5 78,130.6 77.2,132.5 74.7,134.2 
		74.9,134.9 73.7,136.5 73.5,137.7 73.5,141 73.5,144.1 81.9,150.1 86.2,153 91.4,156.5 106.9,158.2 113.4,116.2 82.6,111 
		81.3,117.9 80.3,118.9 78.7,117.5 77.2,118.6 76.8,124.3 76.2,124.6 	"/>
	<polyline id="polyline34" class="st0" points="228.9,128.5 226.1,129 224.9,128 225.6,126.9 226.3,124.3 199.2,125.5 200.2,147.4 
		201.8,147.5 202.5,151.9 221.2,151.2 221.4,150.5 221.2,147.9 221.4,145.3 223,142.4 225.1,139.8 224.2,137.5 226.1,136.1 
		226.5,134.6 228.2,133 229.2,129.5 228.9,128.5 	"/>
	<polyline id="polyline36" class="st0" points="73.5,141 73.5,137.7 73.7,136.5 74.9,134.9 74.7,134.2 77.2,132.5 78,130.6 
		77.5,129.5 77,127.4 75.8,125.9 76.7,124.2 61.7,102.1 52.8,87.5 58.5,66.1 35.8,60.3 34.8,61 35.2,62.4 35.2,63.3 32.1,68.5 
		31,70.4 31,73.2 32.1,74.7 32.4,79.1 31.9,82.9 32.6,86 34,88.3 34.3,92.1 36.7,92.1 36.9,91.2 38.1,91.6 38.1,92.6 37.1,93.1 
		36.9,94.2 36.9,95.2 35.9,94.9 34.8,96.6 36.2,98.2 37.6,101.5 36.9,103 35.9,103.9 37.6,108.1 38.5,110 39.7,113.1 40.9,115.7 
		40.9,118.1 40.4,119.9 40.2,120.4 42.3,121.1 43.5,122.5 44.9,122.3 46.1,122.5 47.2,123.4 47.7,124.7 48.2,126.1 50.1,126.3 
		51.7,127.2 52.4,128.2 53.6,129.9 54.5,131.2 55.5,132.7 56.9,132.9 57.1,133.4 57.6,134.8 57.8,137.1 58.1,139 59.5,140.2 
		60.9,140.4 62.3,140.7 66.5,141.6 69.6,142.1 71.7,141.8 73.5,141 	"/>
	<polyline id="polyline38" class="st0" points="116.9,85.6 144.7,88.7 156.2,89.6 154.5,119.9 148.1,119.7 113.5,116.2 116.9,85.6 	
		"/>
	<polyline id="polyline40" class="st0" points="325.7,69.6 325.7,65.6 315.9,68.9 315.9,75.1 315.6,79.7 316.7,76.3 317.7,74.7 
		321.2,71.8 323.3,71.3 325.4,70.9 325.7,69.6 	"/>
	<polyline id="polyline42" class="st0" points="315.8,94.3 313.8,94.5 311.3,92.7 310.7,90.4 309.5,86.5 306.8,87.2 309,96.2 
		313.9,96.2 315.8,94.3 	"/>
	<polyline id="polyline44" class="st0" points="259,170.9 256.2,169.7 253.6,168 251,167.8 248.2,169.5 246.2,169.5 246.1,168.2 
		245.7,164.4 250.8,164.4 262.3,164.8 262.5,166.4 280.2,166.3 280.7,167 281.7,167 281.2,161.5 285.6,162.1 286.6,165.4 289,169.7 
		290.4,173 294.2,179.1 295.6,182.7 298.4,186.9 300,189.3 300.3,195.2 299.5,198.2 299.1,199.6 298.9,200.8 296.5,202.5 
		294.8,202.5 293.7,201.5 293,200.1 291.5,198.7 289.4,196.8 287.1,195.4 287.1,193.7 285.9,192.3 285.9,190.2 284.3,190.7 
		282.4,189 281.2,187.6 281.4,186.2 281.9,184.8 281.7,182.7 280.7,183.1 280,184.3 279.8,180.5 280,177.7 279.6,175.4 276.9,173.7 
		274.4,172 272.2,170.9 269.7,169.7 266.8,168.5 265.9,169.9 264.5,171.4 262.1,171.1 259,170.9 	"/>
	<polyline id="polyline46" class="st0" points="284.9,149.8 283.8,148.1 281.9,145.3 278.6,141 276,140.8 272.7,136.5 271.5,135.4 
		269.9,135.1 268.7,134 269.7,131.8 262.1,132.8 255.1,133.5 260.7,152.8 259.8,156.6 261.2,159 260.7,162 262,163.6 262.6,166.6 
		262.9,166.4 280.2,166.3 280.9,167 281.7,167 281.2,161.5 285.7,162.1 284.9,160.2 285.4,155.5 286.4,155.1 286.8,154.1 
		285.4,153.9 289.9,150.6 287.2,149.3 284.9,149.8 	"/>
	<polyline id="polyline62" class="st0" points="109.4,57.3 107.6,56.4 106,56.4 104.3,56.8 102.2,57.3 98.9,56.8 99.4,54.9 98,53.5 
		97.5,51.6 96.1,50 96.3,48.6 95.9,46 95.1,46.5 94,46.7 93,47.4 92.8,46 93.3,42.5 94.9,38.9 94.2,38.2 93.5,38 92.3,36.8 
		91.8,34.9 90.7,33 89.3,31.6 88.8,29.3 89,25 89.3,19.5 85.2,18.6 83.1,28.8 81.7,34.8 80.5,39.5 73.5,69.6 89.8,73.7 106.3,76.6 
		109.4,57.3 	"/>
	<polyline id="polyline64" class="st0" points="240.2,112.3 238.6,113.4 238.3,115.1 236.9,115.8 236.7,117.2 234.9,118.8 
		232.6,120.8 231.3,119.8 229.4,118.1 229.8,117.7 230.3,116.2 228.2,114.6 226.3,113.2 224.4,110.9 224.4,109 225.1,107.5 
		224.9,105.9 222.1,105.7 219.5,102.8 217.8,100.7 217.1,98.3 216.2,95.1 218.8,93.6 218.3,90.6 219.3,89.6 217.8,88 219,87 
		221.2,86.1 222.5,84.4 223.5,82.5 222.5,81.1 220.9,78.8 219.9,77.1 236.4,76.6 236.9,79.9 238.8,83.1 239.3,84.2 239.7,91.2 
		240,97.7 240.2,101.4 239,103.8 239.5,105.2 240,106.8 238.8,109.2 240.7,109.4 241.6,111.8 240.2,112.3 	"/>
	<polyline id="polyline66" class="st0" points="238.8,83.1 240.2,83.6 242.3,82.9 243,80.8 253.6,81.1 256.9,99.5 256.9,101.7 
		255.5,102.6 254.1,104.7 253.2,106.1 251.5,106.4 251,109.9 249.4,110.9 248.2,109.6 246.1,110.6 245.2,111.5 241.6,111.8 
		240.7,109.4 238.8,109.2 240,106.8 239.5,105.2 239,103.8 240.2,101.4 240,97.7 239.7,91.2 239.3,84.2 238.8,83.1 	"/>
	<polyline id="polyline68" class="st0" points="191.2,92.2 189.6,81.6 187.9,78.5 187.2,71.7 188.2,71 216.7,71.5 219.5,76.2 
		220.9,78.8 222.5,81.1 223.5,82.5 222.5,84.4 221.2,86.1 219,87 217.8,88 219.3,89.6 218.3,90.6 218.8,93.6 216.1,95.1 215.7,94.3 
		214.6,92.7 211.5,93.6 191.9,94.3 191.2,92.2 	"/>
	<polyline id="polyline70" class="st0" points="199.1,105.1 198.5,104.7 196.7,101.2 197.7,100.2 197.6,99.1 155.7,97.4 
		154.5,119.8 199.1,121.4 199.2,106.3 199.1,105.1 	"/>
	<polyline id="polyline72" class="st0" points="266.4,118.4 268.2,116.7 270.3,116.1 270.6,114.4 273.2,112 272,109 270.5,104.9 
		269.4,103.8 267.1,103.3 264,104 259.8,103 258.1,101.7 256.9,101.7 255.5,102.6 254.1,104.7 253.2,106.1 251.5,106.4 251,109.9 
		249.4,110.9 248.2,109.6 246.1,110.6 245.2,111.5 244.4,111.5 240.2,112.3 238.6,113.4 238.3,115.1 236.9,115.8 236.7,117.2 
		233.9,119.7 232.6,120.8 231.4,123.1 234.8,124.3 237.9,122.7 240.5,122.4 249.6,121.2 265.9,119.3 266.4,118.4 	"/>
	<polyline id="polyline74" class="st0" points="232,170 231.3,166.5 230.1,166.5 219.5,166.5 219,163.2 220.7,160.8 221.2,159.2 
		223.5,157.5 222.3,155.2 221.2,151.2 202.5,151.9 202.8,153.8 202.8,159.4 205.1,162.3 206.3,165.1 206.8,167.9 206.1,170.5 
		204.7,172.9 204.7,174.5 204.9,176.2 207.5,175.1 210.1,176.5 213.8,177 217.1,176.5 220.4,176.3 220.4,177.7 222.8,178.6 
		225.6,180.5 226.3,178.9 228.4,179.1 229.4,178.4 230.6,178.2 233.9,179.1 235.3,180.8 236.2,180.1 236.7,178.6 235.8,178.4 
		234.3,177 232.7,176.1 233.6,174.6 234.8,173.9 234.8,172.3 233.4,172.8 232.2,174.9 231.7,173.9 232.2,172.3 231.3,171.8 
		230.1,172.5 227.5,171.8 230.6,170.9 233.4,171.4 232,170 	"/>
	<polyline id="polyline76" class="st0" points="328.5,55.4 323.1,41.3 323.6,40.5 324.5,37.4 325,33.6 324.5,28.7 326.4,27 
		326.2,21.8 328.1,20.9 330.2,22.8 332.5,21.1 334.2,20.6 336.1,23.2 337.2,27.7 337.5,31 337.7,33.4 338.6,34.6 340.5,33.6 
		341.2,35.3 343.1,37.6 344.6,38.1 345.2,39 344.1,40 341.9,40 338.9,42.8 338.4,41.6 337.9,43.1 336.1,42.8 336.3,45.4 334.7,47.1 
		331.8,50.1 330,53 329.2,56.9 328.5,55.4 	"/>
	<polyline id="polyline78" class="st0" points="301,93.3 302.4,95.9 301.9,100.1 307.6,103.9 308,103.4 307.6,102.2 304.7,99.9 
		307.3,100.8 305.7,99.2 305.7,97.1 305.2,94.2 305,91.6 305.7,91.6 306.1,94.5 306.9,96.3 306.6,98.7 308,98.2 309,99.2 
		310.6,101.1 310.4,103 310.2,106.7 311.1,105.8 312.3,103.2 312.5,100.3 313.9,97.5 313.9,96.2 309,96.2 306.7,87.1 286.8,91.2 
		286.8,94.8 294.3,91.2 295,92.3 297.6,94.2 299.3,94.8 301,93.3 	"/>
	<polyline id="polyline80" class="st0" points="329.2,59.7 320.3,60.4 315.8,60.8 316,68.9 325.7,65.6 327.7,66.2 328.8,67.1 
		331.1,68.1 332.1,67.1 333.9,67.1 336.1,66.2 336.1,65 334.4,63.1 335.3,64.3 334.9,65.7 333,65.5 332.3,64.5 330.6,62.6 
		329.7,59.8 329.2,59.7 	"/>
	<polyline id="polyline82" class="st0" points="222.1,47.4 228.4,48.8 233.6,51.2 235.3,55.4 235,59.8 236.2,56.9 237.1,53.9 
		238.1,51.3 239.3,51.1 240.7,52.7 241.4,51.1 244,50.3 245.7,48.9 248,48.7 251.3,50.2 253.3,48.6 256.2,48.5 257.2,47.8 
		255.7,47.5 253.9,47.5 252.5,46.3 251.5,45.6 249.2,45.4 248.9,44 247.5,43.3 246.8,43.3 244.2,43.7 243,44.2 241.4,44.9 
		239.7,45.9 238.1,45.9 235.8,45.9 234.1,44 233.1,44 231,44.2 230.3,43.3 230.8,41.6 232.2,40.7 232.2,39.3 230.6,40 227.7,42.3 
		225.4,44.7 223,46.1 220.7,46.6 222.1,47.4 	"/>
	<polyline id="polyline84" class="st0" points="253.6,81.1 243,80.8 244.4,77.5 244.4,74.4 243.5,69.9 242.1,66.4 243,62.6 
		244.7,58.6 246.3,56.3 247,56.9 248.7,54.6 249.9,52 251.3,50.8 253.6,51.1 255.5,52.5 257.9,53.4 259,53.9 259.3,57.2 259.5,60 
		258.6,62.1 257.6,64.3 257.6,66.2 258.8,66.4 259.3,65.2 259.5,63.8 261.2,62.9 263.3,62.1 264,62.6 264.5,64.7 265.4,66.4 
		266.1,67.8 266.8,69.5 264.7,71.6 264.2,73.7 263.1,74.7 262.6,77.2 261.2,79.4 261.4,80.8 259.9,80.4 253.6,81.1 	"/>
	<polyline id="polyline86" class="st0" points="188.2,70 187.9,58.7 186.3,56.8 186.5,54.7 187.7,52.8 187.2,50.5 186.5,46 186,42 
		186.3,39.4 184.4,35.9 184.4,30.4 188.8,30.3 194.9,30.1 195.6,29.8 195.6,27.7 196.3,27.7 197,30.1 197.9,31.9 200.3,33.1 
		202.2,33.6 203.8,34.1 203.6,32.4 208.9,32.4 207.5,33.8 209.6,34.6 211.7,35.3 212.4,36.2 219.3,36.5 222.3,36.2 223,36.5 
		218.6,39.3 214.3,42.3 212.4,43.7 210.8,46.2 211,50 211.3,50.7 209.1,52.6 207.9,53.5 207.9,55.2 208.2,57.1 208.7,58.3 208.2,62 
		209.1,63.4 213.1,64.6 214.6,65.6 215.5,67.5 216.7,68.1 216.7,70.8 216.9,71.5 188.2,71 188.2,70 	"/>
	<polyline id="polyline88" class="st0" points="226.1,136.1 224.2,137.5 225.1,139.8 223,142.4 221.4,145.3 221.2,147.9 
		221.2,151.2 222.3,155.2 223.5,157.5 221.2,159.2 220.7,160.8 219,163.2 219.5,166.5 230.1,166.5 231.3,166.5 232,170 234.2,169 
		237.4,168 240.2,168.4 239.5,163.2 239.5,135.1 235.8,135.1 226.3,135.4 226.1,136.1 	"/>
	<polyline id="polyline90" class="st0" points="230.6,124.5 228.9,126.4 228.9,128.5 226.1,129 224.9,128 225.6,126.9 226.3,124.3 
		199.2,125.5 199.1,105 198.5,104.7 196.7,101.2 197.7,100.2 197.5,99.1 191.9,94.3 211.5,93.6 214.6,92.7 216.1,95.1 217.1,98.3 
		217.8,100.7 219.5,102.8 222.1,105.7 224.9,105.9 225.1,107.5 224.4,109 224.4,110.9 226.3,113.2 228.2,114.6 230.3,116.2 
		229.8,117.7 229.4,118.1 231.4,119.9 232.6,120.8 230.6,124.5 	"/>
	<polyline id="polyline92" class="st0" points="89,25 88.8,29.3 89.3,31.6 90.7,33 91.8,34.9 92.3,36.8 93.5,38 94.2,38.2 
		94.9,38.9 93.3,42.5 92.8,46 93,47.4 94,46.7 95.1,46.5 95.9,46 96.3,48.6 96.1,50 97.5,51.6 98,53.5 99.4,54.9 98.9,56.8 
		102.2,57.3 104.3,56.8 106,56.4 107.6,56.4 109.5,57.3 110,54 147.2,58.4 149.6,28.6 135.8,27.2 124.7,26.1 114.8,24.7 104.9,22.5 
		96.7,21.1 89.4,19.5 89,25 	"/>
	<polyline id="polyline94" class="st0" points="189.6,81.6 191.2,92.3 192,94.4 197.5,99.1 194.8,98.9 155.7,97.4 156.2,89.6 
		144.9,88.7 146,73.6 176.4,75 179.2,77.1 180.7,77.1 181.3,76.2 183.2,76.6 186.3,78.8 188.2,79.9 189.6,81.6 	"/>
	<polyline id="polyline96" class="st0" points="74.8,121.3 61.7,102.1 52.8,87.5 58.5,66.1 89.7,73.6 81.3,117.9 80.3,118.9 
		78.7,117.5 77.2,118.6 76.8,124.3 74.8,121.3 	"/>
	<polyline id="polyline98" class="st0" points="329.2,59.7 329.2,57.1 323.1,41.3 320.3,42.1 321.2,44 320.7,47.9 319.6,50.5 
		319.6,54.3 320.3,58 320.3,60.3 329.2,59.7 	"/>
	<polyline id="polyline100" class="st0" points="310.6,89.9 309.4,87.3 310.6,85.9 311.6,83.3 309,82.3 309,80.4 309.9,75 
		309.2,74.1 314.9,76.4 315.8,77.2 315.6,80.1 317.2,81 317.2,84.6 316.3,87.4 313.9,90.9 310.6,90.5 310.6,89.9 	"/>
	<polyline id="polyline102" class="st0" points="122.2,157.4 112,156.6 111.7,158.7 106.9,158.2 113.4,116.2 148.1,119.7 
		148.2,123.8 145.8,157.8 122.5,156.1 122.2,157.4 	"/>
	<polyline id="polyline104" class="st0" points="281.9,72.2 281.7,74.7 283.5,74.7 305.5,70.3 309.2,74.1 315.8,76.9 316,68.8 
		315.8,60.9 312.3,54 311.6,46.7 307.6,47.1 304,47.8 301.7,48.9 297.9,54.1 298.1,57.7 298.6,60 296.7,60.7 295.3,62.1 292.7,62.9 
		288.7,63.1 283.8,64.3 283.8,66.9 285.2,68.5 283.8,69.9 281.9,72.1 281.9,72.2 	"/>
	<polyline id="polyline106" class="st0" points="311.8,112 310.4,112 302.1,113.9 292,116.2 283.1,116.7 280.7,117.1 278.1,118.7 
		274.1,121.2 272.2,122.9 270.6,122.9 269.7,125 267.1,126.6 265.2,127.6 263.8,128.5 262.8,131.4 262.3,132.7 270.6,131.6 
		272.7,129.7 275.3,129.7 282.8,129 284.3,130.2 292.3,129.9 299.8,135.1 300.5,135.5 301.2,134.8 303.1,134.3 303.1,132.7 
		304,130.1 306.1,127.2 309.9,126.5 312,124.9 311.3,123.7 308.7,124.4 309.9,123 310.2,121.6 307.6,121.1 309,120.6 311.6,121.4 
		312.7,119.7 313.9,117.8 315.6,118.5 315.1,121.8 316,120.4 316.3,118.5 313.7,115 312,115.2 310.6,116.6 308.5,117.1 308.3,115.9 
		309.9,116.2 312,114.5 313,113.6 312.7,111.7 311.8,112 	"/>
	<polyline id="polyline108" class="st0" points="187.2,50.5 186.5,46 186,42 186.3,39.4 184.4,35.9 184.4,30.4 176.3,30.1 
		167.4,29.7 158.3,29.3 149.6,28.7 147.9,51.4 187.4,53.2 187.2,50.5 	"/>
	<polyline id="polyline110" class="st0" points="271.3,101.9 273.9,97.7 276.7,96.2 278.4,93.1 278.6,86.5 277.5,75.1 276,76.3 
		271.3,79.4 269.4,80.5 267.3,81.7 266.6,80.8 265.2,80.8 263.1,81 261.2,80.8 260,80.4 253.6,81.1 256.9,99.5 256.9,101.7 
		258.1,101.7 259.8,103 264,104 267.1,103.3 269.2,103.7 270.5,104.9 271.3,101.9 	"/>
	<polyline id="polyline112" class="st0" points="148.1,119.7 199.1,121.4 200,146.9 198.3,146.7 196.4,145 193.8,144.8 191.7,145.5 
		188.2,145.8 185.8,145.5 183.7,145.8 182.3,144.8 180.7,144.8 178.3,145 177.3,144.1 176.4,143.4 174,143.1 172.2,142.4 
		170.5,141.5 168.9,140.8 166.3,140.3 166.5,124 148.1,123.8 148.1,119.7 	"/>
	<polyline id="polyline114" class="st0" points="45.4,30.8 44.2,31.9 44.2,34.6 41.8,38.1 41.6,39.7 42,40.9 40.9,42.1 40.2,43.5 
		39.9,46.1 38.7,48 37.6,48.7 38.3,49.9 36.2,50.8 35.7,53 35.2,54.6 35.9,55.1 35,56.5 35,58.6 35.9,60.3 58.5,66.1 73.4,69.6 
		79.9,42.7 80.5,39.6 77.5,39.4 75.1,38.9 72.8,38.4 68.8,38.2 67.6,38.7 65.5,38 64.1,38.2 62,38.2 59.8,37.5 58.6,37.7 57.9,37.3 
		56.5,36.8 54.6,37.3 51.8,37.3 50.4,34.9 51.1,31.6 50.7,30.7 46.9,29.5 45.4,30.8 	"/>
	<polyline id="polyline116" class="st0" points="308.7,86.8 280,92.5 277.4,75.5 281.9,72.2 281.7,74.7 283.5,74.7 305.5,70.3 
		309.1,73.9 309.9,75 309,80.4 309,82.3 311.6,83.3 310.6,85.9 308.7,86.8 	"/>
	<polyline id="polyline118" class="st0" points="325.7,69.6 325.7,65.6 326.4,65.8 327.8,66.3 328.8,67.1 328.5,69.9 327.8,70.9 
		325.4,70.9 325.7,69.6 	"/>
	<polyline id="polyline120" class="st0" points="299.8,135.1 292.3,129.9 284.3,130.2 282.8,129 275.3,129.7 272.7,129.7 
		270.6,131.6 269.7,131.8 268.7,134 269.9,135.1 271.5,135.4 272.7,136.5 276,140.8 278.6,141 281.9,145.3 283.8,148.1 284.9,149.8 
		287.3,149.3 290,150.6 289.1,148.7 288.3,147.5 289,147.5 291.1,147 291.1,145.6 292.3,145.4 293.9,144.7 294.8,142.3 296.7,141.6 
		296.7,140.2 297.9,137.1 300.5,135.4 299.8,135.1 	"/>
	<polyline id="polyline122" class="st0" points="188.2,79.9 186.3,78.8 183.2,76.6 181.3,76.2 180.7,77.1 179.2,77.1 176.4,75 
		146.1,73.5 147.9,51.4 187,53.3 186.5,54.7 186.3,56.8 187.9,58.7 188.2,70 188.2,71.2 187.2,71.7 187.9,78.5 189.6,81.6 
		188.2,79.9 	"/>
	<polyline id="polyline124" class="st0" points="235.8,135.1 239.7,134.9 262.2,132.7 262.8,131.4 263.8,128.5 265.2,127.6 
		267.1,126.6 269.7,125 270.6,122.9 272.2,122.9 274.1,121.2 280.6,117.1 275.8,117.9 265.9,119.3 249.6,121.2 240.5,122.4 
		237.9,122.7 234.9,124.3 231.5,123.1 228.9,126.4 229.2,129.5 228.2,133 226.6,134.5 226.3,135.3 229.4,135.4 235.8,135.1 	"/>
	<polyline id="polyline126" class="st0" points="203,176.5 200.9,178 199.5,176.8 199.5,175.6 197.8,176.5 198.5,178 198.1,179.1 
		196.2,181.5 193.4,183.1 190.5,184.6 188.2,184.3 186.5,184.1 187,185.2 187.9,186.2 187.7,187.1 184.9,187.6 183.5,188.3 
		183.7,189.3 183,190.2 181.6,190.4 181.6,191.6 180.9,193.3 179.5,194 179.2,195.2 181.1,195.2 181.6,196.6 180.7,198.5 
		181.3,199.9 181.8,202.7 181.6,204.6 182,205.7 178.3,204.6 174.3,203.9 172.2,203 169.1,200.1 167.7,196.6 165.8,193 165.1,190.4 
		163.4,188.8 162.3,187.6 161.1,186.2 161.1,184.1 159.7,182.4 159.7,180.5 157.8,178.9 155.7,177.2 154,175.6 150.7,175.1 
		147.4,174.2 145.1,175.1 144.6,178.4 143.4,179.4 142,180.1 139.7,178.6 136.4,176.1 134.7,174.2 134,170.9 131.9,167.8 
		131.7,165.9 128.1,163.3 127.6,161.9 124.8,158.8 122.2,157.4 122.4,156.2 145.8,157.8 148.1,123.8 166.5,124 166.3,140.3 
		168.9,140.8 170.5,141.5 172.2,142.4 174,143.1 176.4,143.4 177.3,144.1 178.3,145 180.7,144.8 182.3,144.8 183.7,145.8 
		185.8,145.5 188.2,145.8 191.7,145.5 193.8,144.8 196.4,145 198.3,146.7 200,146.9 201.8,147.6 202.8,153.8 202.8,159.4 
		205.1,162.3 206.3,165.1 206.8,167.9 206.1,170.5 204.7,172.9 204.7,174.5 204.9,176.2 203,176.5 	"/>
	<polyline id="polyline128" class="st0" points="321.1,45 320.7,47.9 319.6,50.5 319.6,54.3 320.3,58 320.2,60.4 315.7,60.8 
		312.3,54 311.6,46.7 321.1,45 	"/>
	<polyline id="polyline130" class="st0" points="298.9,94.9 301,93.3 302.4,95.9 301.9,100.1 304,102 306.9,104.9 308.3,106.3 
		307.1,107 304.5,107 306.9,108.4 309.7,109.1 311.6,109.8 312.7,111.7 310.4,112 302.1,113.9 292,116.2 283.1,116.7 275.8,117.9 
		265.9,119.3 266.4,118.4 268.2,116.7 270.3,116.1 270.6,114.4 273.2,112 274.1,112.3 277.4,113 280,112 282.6,110.1 284.3,108 
		285.2,104.5 286.4,102.4 287.8,100.7 289.6,100.9 290.1,99.3 291.1,97.2 293.2,94.1 294.6,92 298.1,94.6 299.3,94.8 298.9,94.9 	
		"/>
	<polyline id="polyline132" class="st0" points="56,17.3 56.2,18.3 54.8,20 53.6,21.6 53.3,22.8 53.6,23.7 53.6,24.7 55.2,24.2 
		56,23 57.1,21.8 57.4,20 57.6,18.1 56.4,18.1 56.2,16.9 56.6,15.9 57.8,14.5 57.8,11.9 59.5,11.5 67.5,13.5 73.1,15.4 81.4,17.6 
		85.2,18.6 81.7,34.9 81.2,37 80.5,39.6 77.5,39.4 75.1,38.9 72.8,38.4 68.8,38.2 67.6,38.7 65.5,38 64.1,38.2 62,38.2 59.8,37.5 
		58.6,37.7 57.9,37.3 56.5,36.8 54.6,37.3 51.8,37.3 50.4,34.9 51.1,31.6 50.7,30.7 47.7,29.7 46.3,28.4 46.3,26.3 47.2,23.9 
		46.3,23 46.7,19.7 45.6,15.4 47.7,11.9 51.5,15.7 53.3,15.2 53.3,16.4 55.7,16.9 56,17.3 	"/>
	<polyline id="polyline134" class="st0" points="238.1,51.3 237.1,53.9 236.2,56.9 235,59.8 235,61 236.4,58.6 238.3,56.5 
		239.3,55.3 238.3,57.4 237.4,59.6 236.4,63.1 236.7,65.5 236.2,69 236.2,73.2 236.7,75.6 236.4,76.6 219.9,77.1 219.5,76.2 
		217.5,72.9 216.7,71.2 216.7,68.1 215.5,67.5 214.6,65.6 213.1,64.6 209.1,63.4 208.2,62 208.7,58.3 208.2,57.1 207.9,55.2 
		207.9,53.5 209.1,52.6 211.3,50.7 211,50 210.8,46.2 211.7,46.1 214.1,45.9 216,45.4 217.4,45.2 217.8,44.7 218.6,46.1 220.7,46.6 
		223,46.1 222.1,47.4 228.4,48.8 233.6,51.2 235.3,55.4 238.1,51.3 	"/>
	<polyline id="polyline136" class="st0" points="144.9,88.7 147.3,58.3 110,54 105,84.2 128.9,87.1 144.9,88.7 	"/>
	<polyline id="polyline138" class="st0" points="113.5,116.2 82.7,110.9 89.8,73.6 106.3,76.6 105,84.2 116.8,85.6 113.5,116.2 	"/>
	<polyline id="polyline140" class="st0" points="272,109 273.2,112.1 277.4,113 280,112 282.6,110.1 284.3,108 285.2,104.5 
		286.4,102.4 287.8,100.7 289.6,100.9 290.1,99.3 291.1,97.2 293.2,94.1 294.6,92 298.1,94.6 299.3,94.8 297.4,93.1 294.4,91.2 
		286.8,94.8 286.8,91.1 280.1,92.4 278.8,85.6 278.4,93.1 276.7,96.2 273.9,97.7 271.3,101.9 270.6,104.7 272,109 	"/>
	<circle class="st1" cx="195.3" cy="174.6" r="2.9"/>
	<text transform="matrix(1 0 0 1 155.2009 170.0218)" class="st1 st2 st3">Houston</text>
</g>
</svg>
